HIERARCHY
ROOT joint_0
{
	OFFSET 0.000000 0.000000 0.000000
	CHANNELS 6 Xposition Yposition Zposition Zrotation Yrotation Xrotation 
	JOINT joint_1
	{
		OFFSET 3.886261 -0.864090 119.041016
		CHANNELS 3 Zrotation Yrotation Xrotation
		JOINT joint_2
		{
			OFFSET -8.814819 -1.400200 108.366943
			CHANNELS 3 Zrotation Yrotation Xrotation
			JOINT joint_3
			{
				OFFSET -10.127777 -1.846550 108.123047
				CHANNELS 3 Zrotation Yrotation Xrotation
				JOINT joint_4
				{
					OFFSET -0.104309 -2.852760 150.227051
					CHANNELS 3 Zrotation Yrotation Xrotation
					JOINT joint_5
					{
						OFFSET 20.206146 2.292160 92.163940
						CHANNELS 3 Zrotation Yrotation Xrotation
						End Site
						{
							OFFSET 0.000000 0.000000 0.000000
						}
					}
				}
				JOINT joint_6
				{
					OFFSET 0.345886 -34.260384 83.589966
					CHANNELS 3 Zrotation Yrotation Xrotation
					JOINT joint_7
					{
						OFFSET -3.824402 -146.174217 -19.015991
						CHANNELS 3 Zrotation Yrotation Xrotation
						JOINT joint_8
						{
							OFFSET 134.098145 -24.802032 -261.230957
							CHANNELS 3 Zrotation Yrotation Xrotation
							JOINT joint_9
							{
								OFFSET 123.899048 209.340523 59.187012
								CHANNELS 3 Zrotation Yrotation Xrotation
								End Site
								{
									OFFSET 0.000000 0.000000 0.000000
								}
							}
						}
					}
				}
				JOINT joint_10
				{
					OFFSET -0.423798 31.098438 84.831055
					CHANNELS 3 Zrotation Yrotation Xrotation
					JOINT joint_11
					{
						OFFSET 3.093201 146.891491 -12.504028
						CHANNELS 3 Zrotation Yrotation Xrotation
						JOINT joint_12
						{
							OFFSET 195.631927 -20.967743 -219.380981
							CHANNELS 3 Zrotation Yrotation Xrotation
							JOINT joint_13
							{
								OFFSET -8.651001 -247.511261 -36.616089
								CHANNELS 3 Zrotation Yrotation Xrotation
								End Site
								{
									OFFSET 0.000000 0.000000 0.000000
								}
							}
						}
					}
				}
			}
		}
	}
	JOINT joint_14
	{
		OFFSET 6.948090 -87.642914 -106.942017
		CHANNELS 3 Zrotation Yrotation Xrotation
		JOINT joint_15
		{
			OFFSET -34.394226 4.543823 -458.972961
			CHANNELS 3 Zrotation Yrotation Xrotation
			JOINT joint_16
			{
				OFFSET -17.051544 6.964645 -485.636009
				CHANNELS 3 Zrotation Yrotation Xrotation
				JOINT joint_17
				{
					OFFSET 190.520630 40.462875 -83.888000
					CHANNELS 3 Zrotation Yrotation Xrotation
					End Site
					{
						OFFSET 0.000000 0.000000 0.000000
					}
				}
			}
		}
	}
	JOINT joint_18
	{
		OFFSET 3.929901 87.535423 -107.188965
		CHANNELS 3 Zrotation Yrotation Xrotation
		JOINT joint_19
		{
			OFFSET -34.463440 -10.383845 -458.873047
			CHANNELS 3 Zrotation Yrotation Xrotation
			JOINT joint_20
			{
				OFFSET 14.641205 -11.071349 -485.637978
				CHANNELS 3 Zrotation Yrotation Xrotation
				JOINT joint_21
				{
					OFFSET 194.569275 -4.161928 -84.249998
					CHANNELS 3 Zrotation Yrotation Xrotation
					End Site
					{
						OFFSET 0.000000 0.000000 0.000000
					}
				}
			}
		}
	}
}
MOTION
Frames: 12
Frame Time: 0.016667
487.091095 -82.797485 1155.500000 -2.593580 -0.815596 0.284971 0.168101 -7.093757 -0.746218 0.269325 0.703039 0.083900 0.213930 -1.493630 -0.074041 -0.262146 3.294980 0.704055 0.000000 0.000000 0.000000 1.533585 5.684037 3.999447 7.473284 4.603072 -0.618749 -36.270617 23.413800 -66.934638 0.000000 0.000000 0.000000 -0.484417 8.929523 -5.954504 9.470394 10.379977 5.044626 28.658278 -9.402035 24.423089 0.000000 0.000000 0.000000 -2.075141 1.779466 -0.611680 -2.086235 3.048933 -0.229122 -2.189327 -3.002674 -0.324256 0.000000 0.000000 0.000000 0.888970 0.189703 -0.603836 0.659265 7.359876 0.348996 0.939852 -6.005895 0.275865 0.000000 0.000000 0.000000 
488.076935 -83.421143 1155.635986 -2.004282 -1.275915 0.330551 0.073172 -6.524634 -0.916883 0.198358 0.701513 0.101866 0.141227 -1.395632 -0.092758 -0.256825 3.094748 0.708216 0.000000 0.000000 0.000000 1.670578 5.705055 4.120814 7.079576 4.726698 -0.513647 -36.424129 23.364886 -66.546535 0.000000 0.000000 0.000000 -0.522875 8.865842 -5.922812 9.412804 10.297585 5.185547 28.472330 -9.391565 24.424045 0.000000 0.000000 0.000000 -2.261411 2.474668 -0.613823 -2.281353 2.887012 -0.249830 -2.377563 -2.991133 -0.409227 0.000000 0.000000 0.000000 0.682294 0.723376 -0.578097 0.470723 7.336480 0.311997 0.753840 -6.021397 0.195516 0.000000 0.000000 0.000000 
489.324524 -84.438881 1155.817017 -1.102548 -2.154358 0.394668 -0.098465 -5.551088 -1.232927 0.067260 0.727998 0.165920 0.001944 -1.253338 -0.135037 -0.245414 2.758380 0.703719 0.000000 0.000000 0.000000 2.248944 5.658320 4.331789 6.335589 4.968267 -0.406728 -36.734281 23.353783 -65.920491 0.000000 0.000000 0.000000 -0.685344 8.757394 -5.799833 9.408358 10.191419 5.387132 28.241319 -9.363163 24.388229 0.000000 0.000000 0.000000 -2.543079 3.710549 -0.610754 -2.578875 2.646222 -0.296227 -2.665663 -2.981037 -0.537493 0.000000 0.000000 0.000000 0.362128 1.712769 -0.532095 0.182663 7.307156 0.253074 0.470076 -6.055076 0.072723 0.000000 0.000000 0.000000 
491.509857 -85.626602 1156.006958 -0.205086 -2.953884 0.470751 -0.235456 -4.665820 -1.616500 -0.023289 0.745253 0.266752 -0.102100 -1.127777 -0.196125 -0.232902 2.394508 0.698037 0.000000 0.000000 0.000000 2.752171 5.638250 4.412619 5.727278 5.191309 -0.228798 -36.911346 23.390769 -65.303671 0.000000 0.000000 0.000000 -0.936332 8.661165 -5.607288 9.415293 10.106605 5.620124 27.950753 -9.309095 24.316965 0.000000 0.000000 0.000000 -2.820082 4.839021 -0.626315 -2.873159 2.543003 -0.331258 -2.954986 -3.044502 -0.650336 0.000000 0.000000 0.000000 0.042094 2.671903 -0.502519 -0.108401 7.264479 0.205162 0.183080 -6.100855 -0.051718 0.000000 0.000000 0.000000 
495.008484 -86.897125 1156.197998 0.444858 -3.280817 0.568030 -0.252549 -4.294492 -2.017352 0.009472 0.748676 0.379927 -0.086992 -1.068888 -0.280124 -0.224450 2.068883 0.703655 0.000000 0.000000 0.000000 2.781149 5.725194 4.188890 5.652083 5.292960 0.086364 -36.697892 23.491416 -64.872163 0.000000 0.000000 0.000000 -1.283369 8.626422 -5.356158 9.445642 10.090022 5.906772 27.570039 -9.213020 24.185158 0.000000 0.000000 0.000000 -3.021087 5.355340 -0.686579 -3.088350 2.724171 -0.307405 -3.173332 -3.234396 -0.705060 0.000000 0.000000 0.000000 -0.197336 3.334197 -0.511838 -0.326368 6.963148 0.193276 -0.040647 -6.052348 -0.146911 0.000000 0.000000 0.000000 
499.554596 -88.332817 1156.404053 0.968003 -3.319070 0.688076 -0.191944 -4.253898 -2.458127 0.127310 0.753708 0.502838 0.009074 -1.054591 -0.389471 -0.216576 1.741848 0.711610 0.000000 0.000000 0.000000 2.525516 5.882288 3.746319 5.925184 5.322388 0.508920 -36.197039 23.649086 -64.521847 0.000000 0.000000 0.000000 -1.739808 8.631742 -5.039365 9.515961 10.124052 6.259869 27.105714 -9.078902 23.991901 0.000000 0.000000 0.000000 -3.184707 5.500196 -0.780367 -3.264823 3.106200 -0.237190 -3.358365 -3.516293 -0.725476 0.000000 0.000000 0.000000 -0.399693 3.880298 -0.540082 -0.507491 6.400566 0.202154 -0.237626 -5.902829 -0.228425 0.000000 0.000000 0.000000 
505.517822 -89.688675 1156.552002 1.587407 -3.349431 0.835339 -0.135633 -4.179834 -2.915189 0.239521 0.723153 0.637866 0.099522 -1.026642 -0.492952 -0.211726 1.482979 0.726181 0.000000 0.000000 0.000000 2.272188 6.034746 3.320844 6.158877 5.366981 0.899676 -35.755486 23.790137 -64.208618 0.000000 0.000000 0.000000 -2.192463 8.614097 -4.721836 9.491175 10.122192 6.555788 26.645652 -8.953890 23.849631 0.000000 0.000000 0.000000 -3.358765 5.628299 -0.884521 -3.443077 3.664338 -0.233041 -3.554926 -3.939617 -0.720079 0.000000 0.000000 0.000000 -0.612652 4.042282 -0.603665 -0.728813 6.686893 0.212165 -0.446438 -6.145481 -0.323221 0.000000 0.000000 0.000000 
513.624146 -90.847679 1156.534058 2.495972 -3.509911 0.941868 -0.148052 -3.982774 -3.244145 0.257953 0.681028 0.708932 0.104944 -0.954476 -0.573925 -0.214908 1.343702 0.762087 0.000000 0.000000 0.000000 2.208909 6.160234 3.067790 6.148673 5.503078 1.149996 -35.540949 23.884232 -63.930226 0.000000 0.000000 0.000000 -2.578416 8.550515 -4.422374 9.282632 10.049730 6.715737 26.224039 -8.850526 23.817697 0.000000 0.000000 0.000000 -3.599548 5.997660 -0.888065 -3.667300 4.302011 -0.381902 -3.807148 -4.503367 -0.707532 0.000000 0.000000 0.000000 -0.887276 3.698558 -0.683425 -1.062018 8.401349 0.308861 -0.717123 -7.060697 -0.458283 0.000000 0.000000 0.000000 
523.736145 -91.908150 1156.378052 3.615026 -3.683437 0.977220 -0.194346 -3.831706 -3.401149 0.210374 0.660578 0.688121 0.053491 -0.860031 -0.645087 -0.225531 1.297814 0.819170 0.000000 0.000000 0.000000 2.236007 6.286089 2.901219 6.036777 5.700344 1.311719 -35.419584 23.961602 -63.696887 0.000000 0.000000 0.000000 -2.940428 8.465015 -4.114174 8.942538 9.939928 6.787283 25.805502 -8.749950 23.850726 0.000000 0.000000 0.000000 -3.896981 6.463297 -0.762224 -3.922185 5.026125 -0.638479 -4.096963 -5.149838 -0.691631 0.000000 0.000000 0.000000 -1.206722 2.955648 -0.754120 -1.478324 11.083978 0.514641 -1.031663 -8.341145 -0.618483 0.000000 0.000000 0.000000 
533.706360 -92.634712 1156.352051 4.776693 -3.981319 1.142636 -0.211128 -3.221494 -3.741228 0.184905 0.510545 0.824143 0.014424 -0.715082 -0.667499 -0.237459 1.325072 0.877864 0.000000 0.000000 0.000000 2.319998 6.318713 2.767376 5.661111 5.876369 1.498653 -35.674049 23.955858 -63.489605 0.000000 0.000000 0.000000 -3.217458 8.277861 -3.909304 8.458917 9.698558 6.739655 25.492564 -8.729819 24.016098 0.000000 0.000000 0.000000 -4.176639 6.784698 -0.814649 -4.142354 6.239699 -0.914805 -4.368498 -5.915356 -0.639252 0.000000 0.000000 0.000000 -1.493777 1.380577 -0.923615 -1.916018 15.530538 0.472552 -1.280769 -9.819595 -0.751885 0.000000 0.000000 0.000000 
541.821960 -92.850227 1156.790039 6.134124 -4.372741 1.388136 -0.188702 -1.998719 -4.105764 0.146554 0.263372 1.086424 -0.043873 -0.492564 -0.610059 -0.250682 1.370590 0.947896 0.000000 0.000000 0.000000 2.432411 6.168332 2.610749 4.833503 5.966538 1.800160 -36.610465 23.804581 -63.297727 0.000000 0.000000 0.000000 -3.389580 7.875997 -3.923961 7.753235 9.197482 6.571724 25.339024 -8.856533 24.445376 0.000000 0.000000 0.000000 -4.476570 6.636720 -1.028516 -4.325300 8.317224 -1.192100 -4.633711 -6.707516 -0.571717 0.000000 0.000000 0.000000 -1.791722 -1.862443 -1.105159 -2.483665 23.096766 -0.083010 -1.507841 -10.921800 -0.859906 0.000000 0.000000 0.000000 
548.894775 -92.648102 1157.594971 7.787946 -4.664734 1.231098 -0.150984 -0.681752 -3.483709 0.029291 0.144466 0.940428 -0.134791 -0.214281 -0.483376 -0.271037 1.420334 1.052700 0.000000 0.000000 0.000000 2.577507 5.884420 2.391189 3.637417 5.997374 2.202782 -38.103616 23.526944 -63.093848 0.000000 0.000000 0.000000 -3.479751 7.297047 -4.129880 6.827742 8.480608 6.294671 25.299222 -9.102061 25.110198 0.000000 0.000000 0.000000 -4.861048 5.964675 -0.820947 -4.465200 11.102832 -1.530071 -4.895470 -7.246302 -0.545630 0.000000 0.000000 0.000000 -2.104072 -6.673444 -0.872416 -3.280291 33.138263 -1.016926 -1.832175 -10.327739 -0.958793 0.000000 0.000000 0.000000 
